# xmcd CD database file
#
# Track frame offsets:
#	150
#	13133
#	30787
#	47091
#	59420
#	75477
#	95983
#	112107
#	125699
#	142557
#	161941
#	175567
#
# Disc length: 2480 seconds
#
# Revision: 2
# Processed by: cddbd v1.5.2PL0 Copyright (c) Steve Scherf et al.
# Submitted via: CDex 2.21
#
DISCID=9809ae0c
DTITLE=Kelly Willis - Translated from Love
DYEAR=2007
DGENRE=Country
TTITLE0=Nobody Wants to Go to the Moon Anymore
TTITLE1=Sweet Little One
TTITLE2=Don't Know Why
TTITLE3=Teddy Boys
TTITLE4=Losing You
TTITLE5=Too Much to Lose
TTITLE6=The More That I'm Around You
TTITLE7=Sweet Sundown
TTITLE8=Success
TTITLE9=Stone's Throw Away
TTITLE10=I Must Be Lucky
TTITLE11=Translated from Love
EXTD=YEAR: 2007
EXTT0=
EXTT1=
EXTT2=
EXTT3=
EXTT4=
EXTT5=
EXTT6=
EXTT7=
EXTT8=
EXTT9=
EXTT10=
EXTT11=
PLAYORDER=
